# xmcd
# 
# Track frame offsets:
#     150
#     40737
#     62750
# 
# Disc length: 1376
# 
# Revision: 2
# Processed by: cddbd v1.5.2PL0 Copyright (c) Steve Scherf et al.
# Submitted via: BonkEnc v1.0
# 
DISCID=1f055e03
DTITLE=王様 - 浜っ子伝説〜ビーチボーイズ日本語直訳メドレー〜
DYEAR=0
DGENRE=Japanese Rock
TTITLE0=浜っ子伝説
TTITLE1=浜っ子伝説 (RADIO EDIT)
TTITLE2=浜っ子伝説 (オリジナル・カラオケ)
EXTD=
EXTT0=
EXTT1=
EXTT2=
PLAYORDER=
